<svg fill="none" height="38" viewBox="0 0 106 38" width="106" xmlns="http://www.w3.org/2000/svg" xmlns:xlink="http://www.w3.org/1999/xlink"><linearGradient id="a" gradientUnits="userSpaceOnUse" x1="11.0833" x2="25.3333" y1="3.16693" y2="34.8336"><stop offset="0" stop-color="#ebc77a"/><stop offset=".541667" stop-color="#ca3f8d"/><stop offset="1" stop-color="#5142fc"/></linearGradient><path d="m64.8026 8.63636v20.36364h-3.7188l-8.8594-12.8168h-.1491v12.8168h-4.3054v-20.36364h3.7784l8.7898 12.80684h.1789v-12.80684zm3.5571 20.36364v-20.36364h13.483v3.54974h-9.1776v4.8523h8.2827v3.5497h-8.2827v8.4119zm15.6034-16.8139v-3.54974h16.7249v3.54974h-6.2349v16.8139h-4.2557v-16.8139z" fill="#fff"/><path d="m23.7554 7.43747c.7087-3.98935-4.3235-6.34062-6.9289-3.23757l-11.14402 13.2728c-2.1624 2.5755-.33139 6.5037 3.03149 6.5037h6.69993l-1.17 6.5864c-.7087 3.9893 4.3234 6.3406 6.9287 3.2376l11.1443-13.2728c2.1624-2.5754.3314-6.5036-3.0316-6.5036h-6.6999z" fill="url(#a)"/></svg>