<svg xmlns="http://www.w3.org/2000/svg" viewBox="0 0 604.96 123.67"><defs><style>.cls-1{fill:#fff;}.cls-2{fill:#f7931a;}</style></defs><g id="Layer_2" data-name="Layer 2"><g id="Layer_1-2" data-name="Layer 1"><path class="cls-1" d="M208.34,40.12A5,5,0,0,1,212,41.56a4.94,4.94,0,0,1,1.49,3.62v6.75A5.05,5.05,0,0,1,208.41,57h-23v32.8a12.9,12.9,0,0,0,.64,5,12.61,12.61,0,0,0,2.54,4.4,11.06,11.06,0,0,0,4.05,2.57,11.85,11.85,0,0,0,4.79.81,34.51,34.51,0,0,0,11.4-2.3,4,4,0,0,1,1.78-.22,3.94,3.94,0,0,1,1.7.6,4.05,4.05,0,0,1,1.25,1.29,4,4,0,0,1,.54,1.71v7.76a6.29,6.29,0,0,1-4.19,6,59.76,59.76,0,0,1-18.83,3.3,30.9,30.9,0,0,1-22.4-7.56,29.59,29.59,0,0,1-8-22.27V57.2h-8a3.38,3.38,0,0,1-2.38-1,3.34,3.34,0,0,1-1-2.39V52.34L183,15.22a3.16,3.16,0,0,1,3.17,3.17v21.8Z"/><path class="cls-1" d="M396.77,99.72a3.84,3.84,0,0,1,5.94,3v4.79a6.24,6.24,0,0,1-3,5.4,58.45,58.45,0,0,1-32.26,8.57,47.24,47.24,0,0,1-33.74-11.34,37.19,37.19,0,0,1-9.59-13.5,38.41,38.41,0,0,1-3-16.26,42,42,0,0,1,2.7-16.27,40.66,40.66,0,0,1,9-13.5,41.85,41.85,0,0,1,59.66.68A43.8,43.8,0,0,1,401.43,67a42.31,42.31,0,0,1,2.09,12A6,6,0,0,1,403,81.3a6.1,6.1,0,0,1-1.37,2,6.07,6.07,0,0,1-4.42,1.7H347.37a23.41,23.41,0,0,0,7.49,16.88,27,27,0,0,0,18.43,5.73A49.71,49.71,0,0,0,396.77,99.72ZM347.37,71h34.22a17.14,17.14,0,0,0-34.22,0Z"/><path class="cls-1" d="M116.62,14.27a13.43,13.43,0,0,1,1.49-6.75,13.61,13.61,0,0,1,4.38-5.06A14.38,14.38,0,0,1,128.84.1a13,13,0,0,1,6.75,1,13.56,13.56,0,0,1,5.4,4,14.1,14.1,0,0,1,2.9,6.15,14.56,14.56,0,0,1-.41,6.75,15,15,0,0,1-7.89,8.84,13.16,13.16,0,0,1-14.85-3.11,12.25,12.25,0,0,1-3-4.38,12.68,12.68,0,0,1-1.15-5.07Zm19.3,25.79a6.73,6.73,0,0,1,6.75,6.74v66a6.74,6.74,0,0,1-6.75,6.75H125.53a6.76,6.76,0,0,1-6.75-6.75v-66a6.74,6.74,0,0,1,6.75-6.74Z"/><path class="cls-1" d="M306.88,1.72a6.75,6.75,0,0,1,5.46,10.6l-30.77,45,42.31,51.29a6.76,6.76,0,0,1,.87,7.13,6.87,6.87,0,0,1-2.48,2.81,6.78,6.78,0,0,1-3.58,1.06H299.86a6.74,6.74,0,0,1-5.13-2.36l-44.55-53v48.45a6.73,6.73,0,0,1-6.74,6.75H227.91a6.74,6.74,0,0,1-6.75-6.75V8.2a6.76,6.76,0,0,1,6.75-6.75h15.53a6.74,6.74,0,0,1,6.74,6.75V54.43l35-50.08a6.75,6.75,0,0,1,5.67-2.9Z"/><path class="cls-1" d="M464.4,40.12a4.94,4.94,0,0,1,2,.35A5.13,5.13,0,0,1,468,41.56a5.05,5.05,0,0,1,1.49,3.62v6.75A5.07,5.07,0,0,1,464.46,57H440.91v32.8a13.5,13.5,0,0,0,3.17,9.45,12.56,12.56,0,0,0,8.91,3.38,36.61,36.61,0,0,0,11.34-2.23,3.91,3.91,0,0,1,5.33,3.38v7.69a6.26,6.26,0,0,1-4.18,6,58.69,58.69,0,0,1-18.7,3.3,31.31,31.31,0,0,1-22.54-7.56,29.59,29.59,0,0,1-8-22.27V57.2h-8.1a3.38,3.38,0,0,1-2.38-1,3.34,3.34,0,0,1-1-2.39V52.34l33.74-37.12a3.16,3.16,0,0,1,3.17,3.17v21.8Z"/><path class="cls-2" d="M565,59.15a3,3,0,0,1-1.35-.33,3.2,3.2,0,0,1-1-.88,3.16,3.16,0,0,1-.54-1.28,3.4,3.4,0,0,1,0-1.42l8.17-29.83a3.38,3.38,0,0,0,0-1.89A3,3,0,0,0,569,22.1a3.14,3.14,0,0,0-1.89-.4,2.81,2.81,0,0,0-1.69.81l-25,26.66V78.39h11.54a2.87,2.87,0,0,1,1.25.36,3,3,0,0,1,1,.85,4,4,0,0,1,.61,1.15,5.09,5.09,0,0,1,0,1.35l-10.4,37.46a3.17,3.17,0,0,0,0,2.23,3.07,3.07,0,0,0,1.35,1.68,3.17,3.17,0,0,0,2.23,0,2.64,2.64,0,0,0,.95-.54,2.82,2.82,0,0,0,.67-.87l54.94-59.53a1.66,1.66,0,0,0,.42-.86,1.63,1.63,0,0,0-.11-1,1.7,1.7,0,0,0-.61-.74,1.78,1.78,0,0,0-.92-.29Z"/><path class="cls-1" d="M528.38,42.82A6.33,6.33,0,0,1,532,48.63v6.75a3.75,3.75,0,0,1-.55,1.77,3.58,3.58,0,0,1-1.33,1.29,3.73,3.73,0,0,1-3.59,0A50.3,50.3,0,0,0,505.77,53c-6.07,0-8.91,2-8.91,6.21a4,4,0,0,0,.61,1.75,2.93,2.93,0,0,0,1.28,1.28,62.22,62.22,0,0,0,14.31,6.75,42.35,42.35,0,0,1,17.75,11.68,24,24,0,0,1,5.13,14.51,23.09,23.09,0,0,1-8.3,19,36.17,36.17,0,0,1-23.76,6.75,64,64,0,0,1-24.16-4,6.34,6.34,0,0,1-4.05-6V103a3.54,3.54,0,0,1,.47-1.66,3.68,3.68,0,0,1,1.19-1.26,3.75,3.75,0,0,1,1.62-.57,3.68,3.68,0,0,1,1.71.25,63.82,63.82,0,0,0,20.25,4.52c8,0,12-1.89,12-5.94a5,5,0,0,0-.6-2.36,4.44,4.44,0,0,0-1.56-1.82A67.66,67.66,0,0,0,495.92,87a38.67,38.67,0,0,1-16.67-11,20.24,20.24,0,0,1-4.73-13.5,21.54,21.54,0,0,1,2.36-10,21,21,0,0,1,6.75-7.69,37.16,37.16,0,0,1,23.56-6.75,54.37,54.37,0,0,1,21.19,4.72Z"/><path class="cls-1" d="M98.06,66A33.73,33.73,0,0,0,79.7,54.77a24.48,24.48,0,0,0,11.48-9.25,25.53,25.53,0,0,0,4.39-14.24,27,27,0,0,0-2.77-11.4,25.83,25.83,0,0,0-7.43-9A41.58,41.58,0,0,0,57,2.13H6.75A6.74,6.74,0,0,0,0,8.88v27a25.7,25.7,0,0,1,10,6.27,25.68,25.68,0,0,1,6.14,10.12,25.65,25.65,0,0,1,.92,11.8,25.56,25.56,0,0,1-4.48,11A25.49,25.49,0,0,1,0,84.33v27.81a6.74,6.74,0,0,0,6.75,6.74H63.31a44.19,44.19,0,0,0,30.77-9.58A32.47,32.47,0,0,0,102,98a31.52,31.52,0,0,0,2.43-13.5A29.39,29.39,0,0,0,98.06,66ZM35.7,26.83a3.36,3.36,0,0,1,3.38-3.31H51A16.76,16.76,0,0,1,61.82,27.1,9.22,9.22,0,0,1,64.72,31a11,11,0,0,1,1,4.86,12.93,12.93,0,0,1-.88,5,11.88,11.88,0,0,1-3,4.11A15.57,15.57,0,0,1,51,48.69H38.67a3.29,3.29,0,0,1-1.31-.26,3.42,3.42,0,0,1-1.1-.75,3.5,3.5,0,0,1-.73-1.12,3.41,3.41,0,0,1-.23-1.31Zm33.75,68A31.77,31.77,0,0,1,52.71,98H39.21a3.38,3.38,0,0,1-3.37-3.37V73.67a3.34,3.34,0,0,1,1-2.39,3.38,3.38,0,0,1,2.38-1H56A21.75,21.75,0,0,1,69,73.8a11.79,11.79,0,0,1,3.65,4.25,11.51,11.51,0,0,1,1.21,5.4A12.48,12.48,0,0,1,73,90.2a12.23,12.23,0,0,1-4.32,5.13Z"/></g></g></svg>