<?xml version="1.0" standalone="no"?>
<!DOCTYPE svg PUBLIC "-//W3C//DTD SVG 20010904//EN"
 "http://www.w3.org/TR/2001/REC-SVG-20010904/DTD/svg10.dtd">
<svg version="1.0" xmlns="http://www.w3.org/2000/svg"
 width="648.000000pt" height="648.000000pt" viewBox="0 0 648.000000 648.000000"
 preserveAspectRatio="xMidYMid meet">
<metadata>
Created by potrace 1.14, written by Peter Selinger 2001-2017
</metadata>
<g transform="translate(0.000000,648.000000) scale(0.100000,-0.100000)"
fill="#000000" stroke="none">
<path d="M627 6464 c-133 -34 -233 -130 -272 -261 -13 -44 -15 -162 -13 -823
l3 -773 70 -27 c101 -40 274 -133 295 -159 3 -3 34 -28 69 -55 276 -213 484
-596 516 -952 18 -196 -3 -401 -57 -564 -12 -36 -23 -67 -23 -70 -10 -36 -95
-213 -112 -232 -9 -10 -12 -18 -7 -18 5 0 4 -4 -2 -8 -6 -4 -29 -34 -51 -67
-55 -82 -110 -144 -209 -236 -106 -99 -315 -226 -444 -270 l-45 -16 -3 -794
c-2 -696 0 -800 14 -847 49 -171 199 -275 394 -274 36 0 70 1 75 2 6 1 15 2
20 0 13 -2 128 -2 140 0 6 1 15 2 20 0 13 -2 128 -2 140 0 6 1 15 2 20 1 35
-3 3056 0 3080 3 17 3 55 7 85 11 30 3 69 8 85 12 17 3 39 7 50 9 11 1 20 3
20 4 0 1 9 3 20 5 56 10 76 15 145 34 41 12 84 23 94 26 11 2 70 23 130 46
166 62 339 150 485 248 46 31 90 61 99 66 96 61 326 316 382 425 7 14 25 43
39 65 14 22 26 42 26 45 1 3 20 43 42 90 34 74 71 163 80 195 35 125 64 251
68 294 3 31 8 70 11 86 7 46 6 311 -1 395 -10 114 -45 287 -70 345 -8 17 -17
44 -21 60 -18 73 -175 375 -196 375 -4 0 -8 7 -8 15 0 8 -4 15 -8 15 -4 0 -15
13 -25 29 -28 47 -236 254 -307 304 -29 20 -205 136 -235 154 -40 24 -187 93
-199 93 -7 0 -16 4 -21 9 -8 7 -99 40 -127 47 -5 1 -9 2 -10 4 -3 2 -10 3 -71
19 -21 5 -41 11 -43 14 -3 2 39 26 92 52 165 81 328 210 448 356 32 39 146
209 140 209 -3 0 3 12 13 28 19 27 44 78 49 97 1 6 11 30 22 55 22 48 69 219
77 279 28 210 18 418 -26 559 -6 18 -12 39 -13 45 -2 7 -5 19 -8 27 -3 8 -11
33 -18 55 -7 22 -23 63 -36 92 -13 28 -24 55 -24 59 0 12 -82 149 -92 152 -4
2 -8 10 -8 17 0 8 -6 20 -12 27 -7 7 -32 38 -56 69 -64 84 -176 190 -300 284
-62 47 -112 82 -112 78 0 -3 -8 1 -18 9 -38 34 -315 182 -362 193 -3 1 -17 7
-32 13 -51 22 -83 34 -98 37 -8 2 -35 10 -60 18 -46 16 -120 36 -153 43 -10 2
-26 5 -35 8 -22 7 -69 16 -107 21 -16 2 -39 6 -50 8 -79 18 -327 21 -1733 21
-1105 1 -1595 -2 -1625 -10z m2663 -1178 c72 -8 171 -33 223 -55 26 -11 47
-17 47 -13 0 4 4 3 8 -3 4 -5 25 -19 47 -30 97 -47 196 -129 247 -203 31 -45
82 -160 94 -214 4 -18 8 -96 8 -173 -1 -125 -4 -148 -28 -218 -75 -221 -289
-400 -540 -453 -12 -3 -41 -9 -66 -14 -25 -5 -236 -9 -468 -9 -412 -1 -425 0
-465 21 -48 24 -61 38 -87 93 -17 37 -19 60 -15 245 3 113 7 336 10 495 3 160
8 315 10 346 7 105 57 165 158 188 33 7 751 5 817 -3z m395 -2591 c157 -27
343 -97 448 -169 21 -14 40 -26 43 -26 3 0 33 -28 66 -62 112 -117 171 -253
183 -418 5 -66 6 -219 2 -240 -14 -66 -21 -92 -38 -140 -21 -56 -58 -126 -88
-163 -36 -46 -118 -123 -141 -134 -116 -53 -232 -97 -250 -96 -3 0 -16 -4 -30
-9 -21 -8 -52 -15 -180 -43 -73 -15 -220 -19 -690 -19 -532 1 -546 1 -586 22
-22 11 -53 40 -70 63 l-29 42 -3 226 c-1 124 -2 251 -1 281 1 67 1 207 0 275
-1 28 0 145 0 261 1 180 4 218 19 252 19 43 73 89 117 101 35 9 1173 6 1228
-4z"/>
</g>
</svg>
