<svg fill="none" height="34" viewBox="0 0 34 34" width="34" xmlns="http://www.w3.org/2000/svg"><g clip-rule="evenodd" fill-rule="evenodd"><path d="m9.74219 31.1665 4.42051 1.3155v-1.7203l.3608-.4048h2.526v2.0238 1.4167h-2.7064l-3.3379-1.619z" fill="#cdbdb2"/><path d="m24.1768 31.1665-4.3302 1.3155v-1.7203l-.3609-.4048h-2.5259v2.0238 1.4167h2.7063l3.3378-1.619z" fill="#cdbdb2"/><path d="m14.5239 27.4225-.3608 3.3392.451-.4047h4.691l.5413.4047-.3609-3.3392-.7217-.506-3.6085.1013z" fill="#393939"/><path d="m12.0879 4.85693 2.1651 5.66667.9924 16.4941h3.5182l1.0825-16.4941 1.9847-5.66667z" fill="#f89c35"/><path d="m2.61579 17.3035-2.5259462 8.1964 6.3148562-.4048h4.0595v-3.5416l-.1805-7.2857-.90207.8095z" fill="#f89d35"/><path d="m7.39648 18.2141 7.39742.2024-.8118 4.25-3.5184-1.0119z" fill="#d87c30"/><path d="m7.39648 18.3154 3.06722 3.2381v3.2381z" fill="#ea8d3a"/><path d="m10.4639 21.6545 3.6085 1.0119 1.1728 4.3513-.812.5059-3.9693-2.631z" fill="#f89d35"/><path d="m10.4639 24.8928-.72171 6.2738 4.78131-3.7439z" fill="#eb8f35"/><path d="m14.7947 18.4165.4511 8.6013-1.3532-4.4018z" fill="#ea8e3a"/><path d="m6.31445 24.9941 4.14975-.1013-.72168 6.2738z" fill="#d87c30"/><path d="m2.07451 33.8987 7.66797-2.7323-3.42807-6.1725-6.2245662.5059z" fill="#eb8f35"/><path d="m14.2526 10.5237-3.879 3.6428-2.97712 4.0477 7.39742.3036z" fill="#e8821e"/><path d="m9.74219 31.1666 4.78131-3.744-.3608 3.2381v1.8214l-3.2477-.7084z" fill="#dfcec3"/><path d="m24.1768 31.1666-4.6911-3.744.3609 3.2381v1.8214l3.2476-.7084z" fill="#dfcec3"/><path d="m12.8093 20.238.9925 2.3275-3.5184-1.0119z" fill="#393939"/><path d="m1.98438.101074 12.26882 10.422526-2.0748-5.66666z" fill="#e88f35"/><path d="m1.98417.101074-1.623818 5.565476.902118 6.07145-.631482.4047.902122.9108-.721697.7083.992337 1.0119-.63149.6071 1.4434 2.0238 6.76592-2.3273c3.30782-2.9683 4.93162-4.4861 4.87142-4.5536-.0601-.0675-4.1497-3.54167-12.26883-10.422626z" fill="#8e5a30"/><path d="m31.3032 17.3035 2.5259 8.1964-6.3149-.4048h-4.0594v-3.5416l.1804-7.2857.9021.8095z" fill="#f89d35"/><path d="m26.5225 18.2141-7.3974.2024.8118 4.25 3.5183-1.0119z" fill="#d87c30"/><path d="m26.5225 18.3154-3.0673 3.2381v3.2381z" fill="#ea8d3a"/><path d="m23.4551 21.6545-3.6085 1.0119-1.1729 4.3513.812.5059 3.9694-2.631z" fill="#f89d35"/><path d="m23.4551 24.8928.7217 6.2738-4.6911-3.6428z" fill="#eb8f35"/><path d="m19.1242 18.4165-.4511 8.6013 1.3533-4.4018z" fill="#ea8e3a"/><path d="m27.6045 24.9941-4.1498-.1013.7217 6.2738z" fill="#d87c30"/><path d="m31.8444 33.8987-7.6679-2.7323 3.428-6.1725 6.2246.5059z" fill="#eb8f35"/><path d="m19.6663 10.5237 3.8791 3.6428 2.9771 4.0477-7.3974.3036z" fill="#e8821e"/><path d="m21.1096 20.238-.9924 2.3275 3.5183-1.0119z" fill="#393939"/><path d="m31.9346.101074-12.2689 10.422526 2.0748-5.66666z" fill="#e88f35"/><path d="m31.9348.101074 1.6238 5.565476-.9021 6.07145.6315.4047-.9022.9108.7217.7083-.9923 1.0119.6315.6071-1.4434 2.0238-6.7659-2.3273c-3.3078-2.9683-4.9316-4.4861-4.8715-4.5536s4.1498-3.54167 12.2689-10.422626z" fill="#8e5a30"/></g></svg>