<svg fill="none" height="34" viewBox="0 0 34 34" width="34" xmlns="http://www.w3.org/2000/svg"><path d="m0 0h34v34h-34z" fill="#0052ff"/><path d="m17.0004 21.25c-.8003-.0162-1.5798-.2581-2.2487-.6978-.6688-.4397-1.1999-1.0594-1.5321-1.7877s-.4519-1.5356-.3454-2.329c.1065-.7933.4348-1.5405.9473-2.1554.5124-.6149 1.1881-1.0727 1.9493-1.3205.7611-.2477 1.5768-.2756 2.353-.0802.7763.1954 1.4816.6061 2.0347 1.1847s.9316 1.3016 1.0919 2.0859h4.25c-.2181-2.1697-1.2617-4.1727-2.9151-5.5946-1.6533-1.42184-3.7899-2.1539-5.9679-2.04473-2.1779.10917-4.2306 1.05122-5.7335 2.63133-1.50283 1.5801-2.34093 3.6773-2.34093 5.858s.8381 4.2779 2.34093 5.858c1.5029 1.5801 3.5556 2.5222 5.7335 2.6313 2.178.1092 4.3146-.6228 5.9679-2.0447 1.6534-1.4219 2.697-3.4249 2.9151-5.5946h-4.25c0 1.7-2.55 3.4-4.25 3.4z" fill="#fff"/></svg>